# xmcd CD database file
#
# Track frame offsets:
#	150
#	19310
#	45098
#	66043
#	85583
#	104890
#	125058
#	143695
#	162165
#	181875
#	195690
#	211470
#	235753
#	257400
#	274943
#	297958
#	311750
#	322620
#
# Disc length: 4485 seconds
#
# Revision: 1
# Processed by: cddbd v1.5.2PL0 Copyright (c) Steve Scherf et al.
# Submitted via: CDex 1.51
#
DISCID=fc118312
DTITLE=ממיטב שירי האהבה של אהוד מנור - אם זאת אהבה
DYEAR=1900
DGENRE=ישראלי
TTITLE0=מזי כהן אבנר קנר יואל לרנר - אם זאת אהבה
TTITLE1=מתי כספי - לא ידעתי שתלכי ממני
TTITLE2=ריקי גל - טוקיו - גדולה
TTITLE3=מאיר בנאי - יום אחד לא היום
TTITLE4=חוה אלברשטיין - מנסה לשמור על קשר
TTITLE5=מזי כהן אבנר קנר יואל לרנר - הייתי מלך
TTITLE6=יהודית רביץ - עד שיחשיך
TTITLE7=אטרף - ענבל
TTITLE8=קורין אלאל - קשר הירח
TTITLE9=מישה סגל - מי שם
TTITLE10=יהודית רביץ - אגדת אופליה
TTITLE11=ריקי גל מתי כספי - מה זאת אהבה
TTITLE12=גלי עטרי - אולי זה ככה
TTITLE13=מאיר בנאי - נגמרות לי המילים
TTITLE14=קורין אלאל - יום העשב
TTITLE15=מתי כספי - עד
TTITLE16=חוה אלברשטיין - מות הפרפר
TTITLE17=נורית גלרון - מישהו בוכה
EXTD=
EXTT0=
EXTT1=
EXTT2=
EXTT3=
EXTT4=
EXTT5=
EXTT6=
EXTT7=
EXTT8=
EXTT9=
EXTT10=
EXTT11=
EXTT12=
EXTT13=
EXTT14=
EXTT15=
EXTT16=
EXTT17=
PLAYORDER=
